<svg width="320" height="75" viewBox="0 0 320 75" fill="none" xmlns="http://www.w3.org/2000/svg">
<g filter="url(#filter0_d_747_3)">
<path d="M78.0098 16.9517H83.0371L88.75 34.7583L94.4629 16.9517H99.4902L90.7891 42.5455H86.7109L78.0098 16.9517ZM74.9512 16.9517H80.1543L81.1211 36.5689V42.5455H74.9512V16.9517ZM97.3457 16.9517H102.566V42.5455H96.3789V36.5689L97.3457 16.9517ZM116.119 37.7642V29.9244C116.119 29.3853 116.043 28.9224 115.891 28.5357C115.738 28.149 115.498 27.8501 115.17 27.6392C114.842 27.4165 114.402 27.3052 113.852 27.3052C113.406 27.3052 113.025 27.3814 112.709 27.5337C112.393 27.6861 112.152 27.9146 111.988 28.2193C111.824 28.524 111.742 28.9107 111.742 29.3794H105.818C105.818 28.5005 106.012 27.6861 106.398 26.9361C106.797 26.1744 107.359 25.5123 108.086 24.9498C108.824 24.3873 109.703 23.9537 110.723 23.649C111.754 23.3326 112.902 23.1744 114.168 23.1744C115.68 23.1744 117.027 23.4263 118.211 23.9302C119.406 24.4341 120.35 25.19 121.041 26.1978C121.732 27.1939 122.078 28.4478 122.078 29.9595V37.7466C122.078 38.9888 122.148 39.9322 122.289 40.5767C122.43 41.2095 122.629 41.7662 122.887 42.2466V42.5455H116.945C116.664 41.9595 116.453 41.2447 116.312 40.4009C116.184 39.5455 116.119 38.6665 116.119 37.7642ZM116.84 30.9263L116.875 34.0904H114.256C113.705 34.0904 113.236 34.1665 112.85 34.3189C112.475 34.4712 112.17 34.6822 111.936 34.9517C111.713 35.2095 111.549 35.5025 111.443 35.8306C111.35 36.1587 111.303 36.5044 111.303 36.8677C111.303 37.2193 111.385 37.5357 111.549 37.8169C111.725 38.0865 111.959 38.2974 112.252 38.4498C112.545 38.6021 112.873 38.6783 113.236 38.6783C113.893 38.6783 114.449 38.5552 114.906 38.3091C115.375 38.0513 115.732 37.7408 115.979 37.3775C116.225 37.0142 116.348 36.6744 116.348 36.358L117.648 38.7837C117.414 39.2525 117.145 39.7271 116.84 40.2076C116.547 40.688 116.178 41.1333 115.732 41.5435C115.299 41.9419 114.766 42.2701 114.133 42.5279C113.5 42.774 112.732 42.897 111.83 42.897C110.658 42.897 109.58 42.6568 108.596 42.1763C107.623 41.6958 106.844 41.0279 106.258 40.1724C105.672 39.3052 105.379 38.3091 105.379 37.1841C105.379 36.1998 105.555 35.3208 105.906 34.5474C106.27 33.774 106.814 33.1177 107.541 32.5787C108.268 32.0396 109.193 31.6294 110.318 31.3482C111.443 31.0669 112.768 30.9263 114.291 30.9263H116.84ZM135.385 23.5259V27.6392H123.924V23.5259H135.385ZM126.332 18.7974H132.256V36.3404C132.256 36.8443 132.314 37.2369 132.432 37.5181C132.549 37.7876 132.748 37.981 133.029 38.0982C133.322 38.2037 133.709 38.2564 134.189 38.2564C134.529 38.2564 134.811 38.2505 135.033 38.2388C135.256 38.2154 135.467 38.1861 135.666 38.1509V42.3873C135.162 42.5513 134.635 42.6744 134.084 42.7564C133.533 42.8501 132.947 42.897 132.326 42.897C131.061 42.897 129.977 42.6978 129.074 42.2994C128.184 41.9009 127.504 41.274 127.035 40.4185C126.566 39.563 126.332 38.4498 126.332 37.0787V18.7974ZM146.951 42.897C145.404 42.897 144.021 42.6568 142.803 42.1763C141.584 41.6841 140.553 41.0103 139.709 40.1548C138.877 39.2994 138.238 38.315 137.793 37.2017C137.359 36.0884 137.143 34.9107 137.143 33.6685V33.0005C137.143 31.606 137.336 30.3169 137.723 29.1333C138.109 27.938 138.684 26.8951 139.445 26.0044C140.207 25.1138 141.162 24.4224 142.311 23.9302C143.459 23.4263 144.795 23.1744 146.318 23.1744C147.666 23.1744 148.873 23.3912 149.939 23.8248C151.006 24.2583 151.908 24.8794 152.646 25.688C153.396 26.4966 153.965 27.4751 154.352 28.6236C154.75 29.772 154.949 31.0611 154.949 32.4908V34.899H139.41V31.19H149.166V30.733C149.178 30.1001 149.066 29.5611 148.832 29.1158C148.609 28.6705 148.281 28.3306 147.848 28.0962C147.414 27.8619 146.887 27.7447 146.266 27.7447C145.621 27.7447 145.088 27.8853 144.666 28.1665C144.256 28.4478 143.934 28.8345 143.699 29.3267C143.477 29.8072 143.318 30.3638 143.225 30.9966C143.131 31.6294 143.084 32.2974 143.084 33.0005V33.6685C143.084 34.3716 143.178 35.0103 143.365 35.5845C143.564 36.1587 143.846 36.6509 144.209 37.0611C144.584 37.4595 145.029 37.7701 145.545 37.9927C146.072 38.2154 146.67 38.3267 147.338 38.3267C148.146 38.3267 148.943 38.1744 149.729 37.8697C150.514 37.565 151.188 37.0611 151.75 36.358L154.439 39.5572C154.053 40.108 153.502 40.6412 152.787 41.1568C152.084 41.6724 151.24 42.0943 150.256 42.4224C149.271 42.7388 148.17 42.897 146.951 42.897ZM168.467 37.9224V23.5259H174.408V42.5455H168.854L168.467 37.9224ZM169.029 34.0552L170.576 34.0201C170.576 35.2974 170.424 36.481 170.119 37.5708C169.814 38.649 169.363 39.5865 168.766 40.3833C168.18 41.1802 167.453 41.8013 166.586 42.2466C165.73 42.6802 164.74 42.897 163.615 42.897C162.678 42.897 161.816 42.7681 161.031 42.5103C160.258 42.2408 159.59 41.8248 159.027 41.2623C158.465 40.688 158.025 39.9556 157.709 39.065C157.404 38.1626 157.252 37.0845 157.252 35.8306V23.5259H163.176V35.8658C163.176 36.2876 163.229 36.6509 163.334 36.9556C163.439 37.2603 163.592 37.5181 163.791 37.729C163.99 37.9283 164.236 38.0806 164.529 38.1861C164.834 38.2798 165.18 38.3267 165.566 38.3267C166.457 38.3267 167.154 38.1392 167.658 37.7642C168.162 37.3892 168.514 36.8794 168.713 36.2349C168.924 35.5904 169.029 34.8638 169.029 34.0552ZM187.645 37.2017C187.645 36.8736 187.533 36.5923 187.311 36.358C187.1 36.1119 186.725 35.8892 186.186 35.69C185.646 35.479 184.891 35.2681 183.918 35.0572C182.992 34.858 182.119 34.5943 181.299 34.2662C180.49 33.938 179.781 33.5396 179.172 33.0708C178.562 32.6021 178.082 32.0455 177.73 31.4009C177.391 30.7564 177.221 30.0181 177.221 29.1861C177.221 28.3775 177.391 27.6158 177.73 26.9009C178.082 26.1744 178.592 25.5357 179.26 24.9849C179.939 24.4224 180.766 23.983 181.738 23.6665C182.711 23.3384 183.818 23.1744 185.061 23.1744C186.771 23.1744 188.248 23.438 189.49 23.9654C190.732 24.481 191.688 25.2076 192.355 26.1451C193.035 27.0708 193.375 28.1431 193.375 29.3619H187.451C187.451 28.8814 187.369 28.4712 187.205 28.1314C187.053 27.7915 186.801 27.5337 186.449 27.358C186.098 27.1705 185.629 27.0767 185.043 27.0767C184.633 27.0767 184.258 27.1529 183.918 27.3052C183.59 27.4576 183.326 27.6685 183.127 27.938C182.928 28.2076 182.828 28.524 182.828 28.8873C182.828 29.1451 182.887 29.3794 183.004 29.5904C183.133 29.7896 183.326 29.9771 183.584 30.1529C183.842 30.3169 184.17 30.4693 184.568 30.6099C184.967 30.7388 185.447 30.856 186.01 30.9615C187.287 31.1958 188.482 31.5298 189.596 31.9634C190.709 32.397 191.611 33.0123 192.303 33.8091C193.006 34.606 193.357 35.6783 193.357 37.0259C193.357 37.8697 193.164 38.649 192.777 39.3638C192.391 40.0669 191.834 40.688 191.107 41.2271C190.381 41.7544 189.508 42.1646 188.488 42.4576C187.469 42.7505 186.32 42.897 185.043 42.897C183.227 42.897 181.691 42.5748 180.438 41.9302C179.184 41.274 178.234 40.4537 177.59 39.4693C176.957 38.4732 176.641 37.4654 176.641 36.4458H182.16C182.184 37.0318 182.324 37.5123 182.582 37.8873C182.852 38.2623 183.209 38.5376 183.654 38.7134C184.1 38.8892 184.615 38.9771 185.201 38.9771C185.74 38.9771 186.186 38.9009 186.537 38.7486C186.9 38.5962 187.176 38.3912 187.363 38.1333C187.551 37.8638 187.645 37.5533 187.645 37.2017ZM208.439 16.9517H213.467L219.18 34.7583L224.893 16.9517H229.92L221.219 42.5455H217.141L208.439 16.9517ZM205.381 16.9517H210.584L211.551 36.5689V42.5455H205.381V16.9517ZM227.775 16.9517H232.996V42.5455H226.809V36.5689L227.775 16.9517ZM246.549 37.7642V29.9244C246.549 29.3853 246.473 28.9224 246.32 28.5357C246.168 28.149 245.928 27.8501 245.6 27.6392C245.271 27.4165 244.832 27.3052 244.281 27.3052C243.836 27.3052 243.455 27.3814 243.139 27.5337C242.822 27.6861 242.582 27.9146 242.418 28.2193C242.254 28.524 242.172 28.9107 242.172 29.3794H236.248C236.248 28.5005 236.441 27.6861 236.828 26.9361C237.227 26.1744 237.789 25.5123 238.516 24.9498C239.254 24.3873 240.133 23.9537 241.152 23.649C242.184 23.3326 243.332 23.1744 244.598 23.1744C246.109 23.1744 247.457 23.4263 248.641 23.9302C249.836 24.4341 250.779 25.19 251.471 26.1978C252.162 27.1939 252.508 28.4478 252.508 29.9595V37.7466C252.508 38.9888 252.578 39.9322 252.719 40.5767C252.859 41.2095 253.059 41.7662 253.316 42.2466V42.5455H247.375C247.094 41.9595 246.883 41.2447 246.742 40.4009C246.613 39.5455 246.549 38.6665 246.549 37.7642ZM247.27 30.9263L247.305 34.0904H244.686C244.135 34.0904 243.666 34.1665 243.279 34.3189C242.904 34.4712 242.6 34.6822 242.365 34.9517C242.143 35.2095 241.979 35.5025 241.873 35.8306C241.779 36.1587 241.732 36.5044 241.732 36.8677C241.732 37.2193 241.814 37.5357 241.979 37.8169C242.154 38.0865 242.389 38.2974 242.682 38.4498C242.975 38.6021 243.303 38.6783 243.666 38.6783C244.322 38.6783 244.879 38.5552 245.336 38.3091C245.805 38.0513 246.162 37.7408 246.408 37.3775C246.654 37.0142 246.777 36.6744 246.777 36.358L248.078 38.7837C247.844 39.2525 247.574 39.7271 247.27 40.2076C246.977 40.688 246.607 41.1333 246.162 41.5435C245.729 41.9419 245.195 42.2701 244.562 42.5279C243.93 42.774 243.162 42.897 242.26 42.897C241.088 42.897 240.01 42.6568 239.025 42.1763C238.053 41.6958 237.273 41.0279 236.688 40.1724C236.102 39.3052 235.809 38.3091 235.809 37.1841C235.809 36.1998 235.984 35.3208 236.336 34.5474C236.699 33.774 237.244 33.1177 237.971 32.5787C238.697 32.0396 239.623 31.6294 240.748 31.3482C241.873 31.0669 243.197 30.9263 244.721 30.9263H247.27ZM265.814 23.5259V27.6392H254.354V23.5259H265.814ZM256.762 18.7974H262.686V36.3404C262.686 36.8443 262.744 37.2369 262.861 37.5181C262.979 37.7876 263.178 37.981 263.459 38.0982C263.752 38.2037 264.139 38.2564 264.619 38.2564C264.959 38.2564 265.24 38.2505 265.463 38.2388C265.686 38.2154 265.896 38.1861 266.096 38.1509V42.3873C265.592 42.5513 265.064 42.6744 264.514 42.7564C263.963 42.8501 263.377 42.897 262.756 42.897C261.49 42.897 260.406 42.6978 259.504 42.2994C258.613 41.9009 257.934 41.274 257.465 40.4185C256.996 39.563 256.762 38.4498 256.762 37.0787V18.7974ZM278.189 23.5259V27.6392H266.729V23.5259H278.189ZM269.137 18.7974H275.061V36.3404C275.061 36.8443 275.119 37.2369 275.236 37.5181C275.354 37.7876 275.553 37.981 275.834 38.0982C276.127 38.2037 276.514 38.2564 276.994 38.2564C277.334 38.2564 277.615 38.2505 277.838 38.2388C278.061 38.2154 278.271 38.1861 278.471 38.1509V42.3873C277.967 42.5513 277.439 42.6744 276.889 42.7564C276.338 42.8501 275.752 42.897 275.131 42.897C273.865 42.897 272.781 42.6978 271.879 42.2994C270.988 41.9009 270.309 41.274 269.84 40.4185C269.371 39.563 269.137 38.4498 269.137 37.0787V18.7974ZM279.279 33.229V32.8599C279.279 31.4654 279.479 30.1822 279.877 29.0103C280.275 27.8267 280.861 26.8013 281.635 25.9341C282.408 25.0669 283.363 24.3931 284.5 23.9126C285.637 23.4205 286.949 23.1744 288.438 23.1744C289.938 23.1744 291.256 23.4205 292.393 23.9126C293.541 24.3931 294.502 25.0669 295.275 25.9341C296.049 26.8013 296.635 27.8267 297.033 29.0103C297.432 30.1822 297.631 31.4654 297.631 32.8599V33.229C297.631 34.6119 297.432 35.8951 297.033 37.0787C296.635 38.2505 296.049 39.2759 295.275 40.1548C294.502 41.022 293.547 41.6958 292.41 42.1763C291.273 42.6568 289.961 42.897 288.473 42.897C286.984 42.897 285.666 42.6568 284.518 42.1763C283.369 41.6958 282.408 41.022 281.635 40.1548C280.861 39.2759 280.275 38.2505 279.877 37.0787C279.479 35.8951 279.279 34.6119 279.279 33.229ZM285.203 32.8599V33.229C285.203 33.9439 285.256 34.6119 285.361 35.233C285.467 35.854 285.643 36.399 285.889 36.8677C286.135 37.3248 286.469 37.6822 286.891 37.94C287.312 38.1978 287.84 38.3267 288.473 38.3267C289.094 38.3267 289.609 38.1978 290.02 37.94C290.441 37.6822 290.775 37.3248 291.021 36.8677C291.268 36.399 291.443 35.854 291.549 35.233C291.654 34.6119 291.707 33.9439 291.707 33.229V32.8599C291.707 32.1685 291.654 31.5181 291.549 30.9087C291.443 30.2876 291.268 29.7427 291.021 29.274C290.775 28.7935 290.441 28.4185 290.02 28.149C289.598 27.8794 289.07 27.7447 288.438 27.7447C287.816 27.7447 287.295 27.8794 286.873 28.149C286.463 28.4185 286.135 28.7935 285.889 29.274C285.643 29.7427 285.467 30.2876 285.361 30.9087C285.256 31.5181 285.203 32.1685 285.203 32.8599ZM310.234 37.2017C310.234 36.8736 310.123 36.5923 309.9 36.358C309.689 36.1119 309.314 35.8892 308.775 35.69C308.236 35.479 307.48 35.2681 306.508 35.0572C305.582 34.858 304.709 34.5943 303.889 34.2662C303.08 33.938 302.371 33.5396 301.762 33.0708C301.152 32.6021 300.672 32.0455 300.32 31.4009C299.98 30.7564 299.811 30.0181 299.811 29.1861C299.811 28.3775 299.98 27.6158 300.32 26.9009C300.672 26.1744 301.182 25.5357 301.85 24.9849C302.529 24.4224 303.355 23.983 304.328 23.6665C305.301 23.3384 306.408 23.1744 307.65 23.1744C309.361 23.1744 310.838 23.438 312.08 23.9654C313.322 24.481 314.277 25.2076 314.945 26.1451C315.625 27.0708 315.965 28.1431 315.965 29.3619H310.041C310.041 28.8814 309.959 28.4712 309.795 28.1314C309.643 27.7915 309.391 27.5337 309.039 27.358C308.688 27.1705 308.219 27.0767 307.633 27.0767C307.223 27.0767 306.848 27.1529 306.508 27.3052C306.18 27.4576 305.916 27.6685 305.717 27.938C305.518 28.2076 305.418 28.524 305.418 28.8873C305.418 29.1451 305.477 29.3794 305.594 29.5904C305.723 29.7896 305.916 29.9771 306.174 30.1529C306.432 30.3169 306.76 30.4693 307.158 30.6099C307.557 30.7388 308.037 30.856 308.6 30.9615C309.877 31.1958 311.072 31.5298 312.186 31.9634C313.299 32.397 314.201 33.0123 314.893 33.8091C315.596 34.606 315.947 35.6783 315.947 37.0259C315.947 37.8697 315.754 38.649 315.367 39.3638C314.98 40.0669 314.424 40.688 313.697 41.2271C312.971 41.7544 312.098 42.1646 311.078 42.4576C310.059 42.7505 308.91 42.897 307.633 42.897C305.816 42.897 304.281 42.5748 303.027 41.9302C301.773 41.274 300.824 40.4537 300.18 39.4693C299.547 38.4732 299.23 37.4654 299.23 36.4458H304.75C304.773 37.0318 304.914 37.5123 305.172 37.8873C305.441 38.2623 305.799 38.5376 306.244 38.7134C306.689 38.8892 307.205 38.9771 307.791 38.9771C308.33 38.9771 308.775 38.9009 309.127 38.7486C309.49 38.5962 309.766 38.3912 309.953 38.1333C310.141 37.8638 310.234 37.5533 310.234 37.2017Z" fill="#1C2E35"/>
</g>
<g filter="url(#filter1_d_747_3)">
<path d="M49.6238 11.7207L33.4558 1.31754C30.7256 -0.439238 27.3331 -0.439118 24.6028 1.31754L8.43491 11.7207C5.69931 13.4807 4 16.7631 4 20.2867V41.0769C4 44.6005 5.69931 47.8828 8.4348 49.6428L24.6028 60.046C27.3335 61.8031 30.7259 61.8025 33.4558 60.046L49.6237 49.6428C52.3593 47.8828 54.0586 44.6005 54.0586 41.0769V20.2867C54.0586 16.7632 52.3593 13.4808 49.6238 11.7207ZM49.7617 41.0769C49.7617 42.8919 48.8864 44.5826 47.4773 45.4892L31.3093 55.8923C29.9029 56.7975 28.1556 56.7975 26.7492 55.8923L10.5812 45.4892C9.17215 44.5825 8.29688 42.8919 8.29688 41.0769V20.2867C8.29688 18.4718 9.17215 16.7811 10.5813 15.8745L26.7492 5.47133C28.1557 4.56621 29.9035 4.56657 31.3094 5.47133L47.4774 15.8744C48.8864 16.7811 49.7617 18.4717 49.7617 20.2867V41.0769Z" fill="#445964"/>
<path d="M26.9877 28.8516L19.0082 21.3174C18.1026 20.4622 16.7468 20.5881 15.9803 21.5989C15.2139 22.6098 15.3269 24.1224 16.2327 24.9777L22.2739 30.6818L16.2327 36.3859C15.3269 37.2411 15.214 38.7538 15.9803 39.7646C16.7486 40.7776 18.1047 40.8992 19.0082 40.046L26.9877 32.5118C28.0028 31.5534 27.9999 29.8074 26.9877 28.8516Z" fill="#445964"/>
<path d="M40.4382 35.8185H30.7707C29.5841 35.8185 28.6223 36.8918 28.6223 38.2159C28.6223 39.54 29.5841 40.6133 30.7707 40.6133H40.4382C41.6246 40.6133 42.5866 39.54 42.5866 38.2159C42.5866 36.8918 41.6247 35.8185 40.4382 35.8185Z" fill="#445964"/>
</g>
<defs>
<filter id="filter0_d_747_3" x="70.9512" y="16.9517" width="249.014" height="33.9453" filterUnits="userSpaceOnUse" color-interpolation-filters="sRGB">
<feFlood flood-opacity="0" result="BackgroundImageFix"/>
<feColorMatrix in="SourceAlpha" type="matrix" values="0 0 0 0 0 0 0 0 0 0 0 0 0 0 0 0 0 0 127 0" result="hardAlpha"/>
<feOffset dy="4"/>
<feGaussianBlur stdDeviation="2"/>
<feComposite in2="hardAlpha" operator="out"/>
<feColorMatrix type="matrix" values="0 0 0 0 0 0 0 0 0 0 0 0 0 0 0 0 0 0 0.25 0"/>
<feBlend mode="normal" in2="BackgroundImageFix" result="effect1_dropShadow_747_3"/>
<feBlend mode="normal" in="SourceGraphic" in2="effect1_dropShadow_747_3" result="shape"/>
</filter>
<filter id="filter1_d_747_3" x="0" y="0" width="58.0586" height="83" filterUnits="userSpaceOnUse" color-interpolation-filters="sRGB">
<feFlood flood-opacity="0" result="BackgroundImageFix"/>
<feColorMatrix in="SourceAlpha" type="matrix" values="0 0 0 0 0 0 0 0 0 0 0 0 0 0 0 0 0 0 127 0" result="hardAlpha"/>
<feOffset dy="4"/>
<feGaussianBlur stdDeviation="2"/>
<feComposite in2="hardAlpha" operator="out"/>
<feColorMatrix type="matrix" values="0 0 0 0 0 0 0 0 0 0 0 0 0 0 0 0 0 0 0.25 0"/>
<feBlend mode="normal" in2="BackgroundImageFix" result="effect1_dropShadow_747_3"/>
<feBlend mode="normal" in="SourceGraphic" in2="effect1_dropShadow_747_3" result="shape"/>
</filter>
</defs>
</svg>
